<?xml version="1.0" encoding="UTF-8"?>
<svg version="1.1" xmlns="http://www.w3.org/2000/svg" width="350" height="298">
<path d="M0 0 C4.03974463 0.56949897 7.55053604 1.45409228 11.328125 2.984375 C12.40868164 3.41443848 13.48923828 3.84450195 14.60253906 4.28759766 C16.40803223 5.01148682 16.40803223 5.01148682 18.25 5.75 C36.54157802 12.98894049 55.06420072 19.59903639 73.57128906 26.26074219 C75.96942053 27.12429483 78.36753268 27.98790115 80.765625 28.8515625 C81.93538879 29.27248169 83.10515259 29.69340088 84.31036377 30.1270752 C90.43920189 32.33712236 96.55911416 34.56902935 102.66601562 36.83886719 C103.28976452 37.07064604 103.91351341 37.30242489 104.55616379 37.54122734 C107.54261615 38.65189728 110.52768061 39.76614749 113.5112915 40.88442993 C114.56814148 41.2788327 115.62499146 41.67323547 116.71386719 42.07958984 C117.64108582 42.4272641 118.56830444 42.77493835 119.52362061 43.13314819 C122.70754471 44.29189962 122.70754471 44.29189962 126 45 C126.99 44.34 127.98 43.68 129 43 C127.02 41.35 125.04 39.7 123 38 C123.33 36.68 123.66 35.36 124 34 C127.35191948 33.01302841 130.70689263 32.03685244 134.0625 31.0625 C135.00544922 30.78470703 135.94839844 30.50691406 136.91992188 30.22070312 C141.93572377 28.77014021 146.78754048 27.44556981 152 27 C153 28 153 28 153.0625 31.0625 C153.041875 32.031875 153.02125 33.00125 153 34 C153.65226563 33.83242188 154.30453125 33.66484375 154.9765625 33.4921875 C160.2934679 32.25314465 163.86590915 31.56806223 169 34 C169 34.99 169 35.98 169 37 C167.97519531 37.53109375 166.95039063 38.0621875 165.89453125 38.609375 C164.53370644 39.3226349 163.17303758 40.03619238 161.8125 40.75 C161.13896484 41.09804688 160.46542969 41.44609375 159.77148438 41.8046875 C153.24731652 45.24181008 148.60935462 49.11108968 144.1875 55.0625 C143.54337158 55.9131604 143.54337158 55.9131604 142.88623047 56.78100586 C139.44101961 61.34976587 136.09165162 65.98734399 132.7890625 70.66015625 C128.98241451 75.63871988 126.21278246 77.574679 120.078125 79.2265625 C119.39333069 79.41583817 118.70853638 79.60511383 118.00299072 79.80012512 C116.52559514 80.20735649 115.04657783 80.60874074 113.56616211 81.00485229 C109.61460565 82.06287352 105.6751277 83.16426784 101.734375 84.26171875 C100.52322021 84.59735588 100.52322021 84.59735588 99.28759766 84.93977356 C89.64408658 87.62762356 80.10950407 90.65162748 70.57128906 93.68798828 C65.00945835 95.45329033 59.44502269 97.21117331 53.84375 98.84765625 C53.00005859 99.09652588 52.15636719 99.34539551 51.28710938 99.60180664 C48.83620023 100.02851809 47.33701568 99.78763345 45 99 C45.61538462 92.47692308 45.61538462 92.47692308 47.5625 90.0625 C48.036875 89.711875 48.51125 89.36125 49 89 C45.10278491 91.11805168 43.28984465 92.160976 41.8125 96.4375 C41.544375 97.613125 41.27625 98.78875 41 100 C39.1140967 104.95049616 35.83598064 106.58913029 31.234375 108.7265625 C27.24715741 110.29640904 23.22369605 111.62889867 19.125 112.875 C18.38749512 113.10251953 17.64999023 113.33003906 16.89013672 113.56445312 C13.17330224 114.63686243 10.68880582 115.15205028 7 114 C7.3125 112.125 7.3125 112.125 8 110 C9.485 109.01 9.485 109.01 11 108 C9.02 108 7.04 108 5 108 C4.67 106.68 4.34 105.36 4 104 C5.98 102.68 7.96 101.36 10 100 C9.49549316 99.5059668 8.99098633 99.01193359 8.47119141 98.50292969 C6.18387109 96.25723533 3.90439218 94.00373985 1.625 91.75 C0.8309375 90.97269531 0.036875 90.19539063 -0.78125 89.39453125 C-1.54179688 88.64042969 -2.30234375 87.88632813 -3.0859375 87.109375 C-3.7876709 86.41811523 -4.4894043 85.72685547 -5.21240234 85.01464844 C-7.88320883 82.00461086 -9 80.04975683 -9 76 C5.44223187 74.22470904 17.53208895 76.50447674 31.16040039 81.05493164 C32.38231079 81.45119751 32.38231079 81.45119751 33.62890625 81.85546875 C34.35150635 82.09934326 35.07410645 82.34321777 35.81860352 82.59448242 C40.91614233 83.54210547 44.52531344 81.33127507 48.796875 78.75390625 C50.47027954 77.75206299 50.47027954 77.75206299 52.17749023 76.72998047 C53.36833272 76.0074967 54.55916919 75.28500302 55.75 74.5625 C56.97225079 73.82877824 58.19499159 73.09587216 59.41821289 72.36376953 C61.84028374 70.91307486 64.26032742 69.45910854 66.67822266 68.00146484 C96.50918385 50.02746662 96.50918385 50.02746662 110 47 C109.33097656 46.9484375 108.66195312 46.896875 107.97265625 46.84375 C100.47968926 45.9586747 94.61143083 43.63946892 87.95166016 40.32421875 C78.90965039 35.86459408 69.4576519 32.46497393 60 29 C60.9787207 29.43868408 61.95744141 29.87736816 62.96582031 30.3293457 C66.60594751 31.96251337 70.2430966 33.60222271 73.87939453 35.24389648 C75.4518349 35.9527092 77.02507097 36.65975951 78.59912109 37.36499023 C80.86508686 38.38059523 83.12808941 39.40256152 85.390625 40.42578125 C86.09181458 40.73840408 86.79300415 41.05102692 87.51544189 41.37312317 C90.95549835 42.9363202 94.20079656 44.42629293 97 47 C97 47.66 97 48.32 97 49 C95.85144531 49.4846875 94.70289063 49.969375 93.51953125 50.46875 C84.72445179 54.24566729 76.58206293 58.17789374 68.69921875 63.62890625 C66 65 66 65 63.4765625 65 C60.20850743 63.68040679 58.24643557 61.86613617 55.6875 59.4375 C55.18186523 58.96151367 54.67623047 58.48552734 54.15527344 57.99511719 C48.92254003 53.02606081 43.83949092 47.89627034 38.78393555 42.74780273 C35.65550329 39.5765098 32.49530772 36.51477747 29.1171875 33.609375 C24.31042491 29.46488788 19.85032318 24.99663424 15.375 20.5 C14.55515625 19.68402344 13.7353125 18.86804688 12.890625 18.02734375 C0 5.11599427 0 5.11599427 0 0 Z " fill="#CE8F22" transform="translate(96,18)"/>
<path d="M0 0 C4.03974463 0.56949897 7.55053604 1.45409228 11.328125 2.984375 C12.94895996 3.62947021 12.94895996 3.62947021 14.60253906 4.28759766 C16.40803223 5.01148682 16.40803223 5.01148682 18.25 5.75 C36.54157802 12.98894049 55.06420072 19.59903639 73.57128906 26.26074219 C75.96944328 27.12423165 78.36755564 27.9878374 80.765625 28.8515625 C81.9324884 29.27175659 83.09935181 29.69195068 84.30157471 30.12487793 C96.89752206 34.66964808 109.45166105 39.32557047 122 44 C119.44424618 46.55575382 117.71238453 46.28788022 114.22070312 46.32226562 C113.46724609 46.31904297 112.71378906 46.31582031 111.9375 46.3125 C111.21111328 46.32861328 110.48472656 46.34472656 109.73632812 46.36132812 C98.3166108 46.37142513 88.24680346 40.54520829 78.0625 35.93945312 C76.99773437 35.46314453 75.93296875 34.98683594 74.8359375 34.49609375 C73.40580322 33.84918579 73.40580322 33.84918579 71.94677734 33.18920898 C68.6639245 31.86437252 65.41667177 30.91975037 62 30 C62.91813477 30.40839111 63.83626953 30.81678223 64.78222656 31.23754883 C68.19873623 32.75883148 71.61224529 34.28674722 75.02490234 35.81665039 C76.50033281 36.47698404 77.97656328 37.13553329 79.45361328 37.79223633 C81.58059793 38.73827899 83.70459164 39.69077138 85.828125 40.64453125 C86.48556702 40.9352803 87.14300903 41.22602936 87.82037354 41.52558899 C91.1685046 43.03716162 94.27076718 44.51079882 97 47 C97 47.66 97 48.32 97 49 C95.85144531 49.4846875 94.70289063 49.969375 93.51953125 50.46875 C84.72445179 54.24566729 76.58206293 58.17789374 68.69921875 63.62890625 C66 65 66 65 63.4765625 65 C60.20850743 63.68040679 58.24643557 61.86613617 55.6875 59.4375 C55.18186523 58.96151367 54.67623047 58.48552734 54.15527344 57.99511719 C48.92254003 53.02606081 43.83949092 47.89627034 38.78393555 42.74780273 C35.65550329 39.5765098 32.49530772 36.51477747 29.1171875 33.609375 C24.31042491 29.46488788 19.85032318 24.99663424 15.375 20.5 C14.55515625 19.68402344 13.7353125 18.86804688 12.890625 18.02734375 C0 5.11599427 0 5.11599427 0 0 Z " fill="#D07F41" transform="translate(96,18)"/>
<path d="M0 0 C0 0.66 0 1.32 0 2 C-0.94875 2.556875 -1.8975 3.11375 -2.875 3.6875 C-6.75132336 6.55597929 -6.95032339 8.39757178 -8 13 C-9.8859033 17.95049616 -13.16401936 19.58913029 -17.765625 21.7265625 C-21.75284259 23.29640904 -25.77630395 24.62889867 -29.875 25.875 C-30.61250488 26.10251953 -31.35000977 26.33003906 -32.10986328 26.56445312 C-35.82669776 27.63686243 -38.31119418 28.15205028 -42 27 C-41.6875 25.125 -41.6875 25.125 -41 23 C-40.01 22.34 -39.02 21.68 -38 21 C-39.98 21 -41.96 21 -44 21 C-44.33 19.68 -44.66 18.36 -45 17 C-43.02 15.68 -41.04 14.36 -39 13 C-39.50450684 12.5059668 -40.00901367 12.01193359 -40.52880859 11.50292969 C-42.81612891 9.25723533 -45.09560782 7.00373985 -47.375 4.75 C-48.1690625 3.97269531 -48.963125 3.19539063 -49.78125 2.39453125 C-50.92207031 1.26337891 -50.92207031 1.26337891 -52.0859375 0.109375 C-52.7876709 -0.58188477 -53.4894043 -1.27314453 -54.21240234 -1.98535156 C-56.88320883 -4.99538914 -58 -6.95024317 -58 -11 C-37.62015828 -13.99027023 -18.88474359 -7.07772185 0 0 Z " fill="#DB8844" transform="translate(145,105)"/>
<path d="M0 0 C2.64 0 5.28 0 8 0 C10.31 4.95 12.62 9.9 15 15 C17.42277093 11.76963876 19.29437675 8.78383006 21.1875 5.25 C21.71730469 4.26515625 22.24710937 3.2803125 22.79296875 2.265625 C23.19128906 1.51796875 23.58960938 0.7703125 24 0 C26.31 0 28.62 0 31 0 C31 9.9 31 19.8 31 30 C28.69 30 26.38 30 24 30 C23.505 23.565 23.505 23.565 23 17 C21.35 20.3 19.7 23.6 18 27 C16.02 27 14.04 27 12 27 C10.68 24.03 9.36 21.06 8 18 C7.67 21.96 7.34 25.92 7 30 C4.69 30 2.38 30 0 30 C0 20.1 0 10.2 0 0 Z " fill="#FFFFFF" transform="translate(262,153)"/>
<path d="M0 0 C108.9 0 217.8 0 330 0 C330 0.66 330 1.32 330 2 C221.1 2 112.2 2 0 2 C0 1.34 0 0.68 0 0 Z " fill="#FFFFFF" transform="translate(11,240)"/>
<path d="M0 0 C4.62208463 4.3909804 5.69500269 8.04668244 5.9375 14.3125 C5.7852615 19.88996509 4.95081322 22.99153455 1.5 27.375 C-2.38505748 31.02459945 -6.74512358 30.8803663 -11.83984375 30.72265625 C-15.6549205 30.22406325 -17.72388218 29.01231193 -20.5 26.375 C-24.49991583 21.04177889 -24.27052453 14.76179218 -23.5 8.375 C-22.28062212 4.63819681 -20.31199306 2.13778136 -17.4375 -0.5625 C-11.54423466 -2.69410661 -5.67857951 -2.63648334 0 0 Z M-13.25 6.375 C-15.19783516 9.49153625 -15.51407188 12.77259912 -15.5 16.375 C-14.59108722 19.59115293 -13.85959872 21.01540128 -11.5 23.375 C-8.78410499 23.72319167 -7.14847522 23.74555727 -4.75 22.375 C-2.80216484 19.25846375 -2.48592812 15.97740088 -2.5 12.375 C-3.40891278 9.15884707 -4.14040128 7.73459872 -6.5 5.375 C-9.21589501 5.02680833 -10.85152478 5.00444273 -13.25 6.375 Z " fill="#FFFFFF" transform="translate(251.5,196.625)"/>
<path d="M0 0 C2.866875 -0.103125 5.73375 -0.20625 8.6875 -0.3125 C10.02880981 -0.38078003 10.02880981 -0.38078003 11.3972168 -0.45043945 C15.66790907 -0.52467488 17.49574862 -0.36978434 21.046875 2.234375 C23.56460925 5.79948669 23.65929611 7.68902689 23.44140625 11.90625 C22.81559356 14.87470667 21.42233615 16.25894589 19 18 C21.03802135 22.06024321 21.03802135 22.06024321 25 24 C25 26.31 25 28.62 25 31 C21.80048781 31.17775068 19.04694543 31.03884436 16 30 C13.99671907 27.81193005 12.62954117 25.6207123 11.19140625 23.03125 C10.16249384 20.85405981 10.16249384 20.85405981 8 20 C8 23.3 8 26.6 8 30 C5.36 30 2.72 30 0 30 C0 20.1 0 10.2 0 0 Z M8 6 C8 8.64 8 11.28 8 14 C9.98 13.67 11.96 13.34 14 13 C14.33 11.35 14.66 9.7 15 8 C12.04622502 5.63019987 12.04622502 5.63019987 8 6 Z " fill="#FFFFFF" transform="translate(106,196)"/>
<path d="M0 0 C2.866875 -0.103125 5.73375 -0.20625 8.6875 -0.3125 C10.02880981 -0.38078003 10.02880981 -0.38078003 11.3972168 -0.45043945 C15.66790907 -0.52467488 17.49574862 -0.36978434 21.046875 2.234375 C23.56460925 5.79948669 23.65929611 7.68902689 23.44140625 11.90625 C22.81559356 14.87470667 21.42233615 16.25894589 19 18 C21.03802135 22.06024321 21.03802135 22.06024321 25 24 C25 26.31 25 28.62 25 31 C21.80048781 31.17775068 19.04694543 31.03884436 16 30 C13.99671907 27.81193005 12.62954117 25.6207123 11.19140625 23.03125 C10.16249384 20.85405981 10.16249384 20.85405981 8 20 C8 23.3 8 26.6 8 30 C5.36 30 2.72 30 0 30 C0 20.1 0 10.2 0 0 Z M8 6 C8 8.64 8 11.28 8 14 C9.98 13.67 11.96 13.34 14 13 C14.33 11.35 14.66 9.7 15 8 C12.04622502 5.63019987 12.04622502 5.63019987 8 6 Z " fill="#FFFFFF" transform="translate(179,153)"/>
<path d="M0 0 C7 0 7 0 8.890625 1.7578125 C9.33921875 2.53898438 9.7878125 3.32015625 10.25 4.125 C10.70890625 4.89070312 11.1678125 5.65640625 11.640625 6.4453125 C13.14403509 9.27068664 14.56870821 12.13741642 16 15 C16.33 10.05 16.66 5.1 17 0 C19.31 0 21.62 0 24 0 C24 9.9 24 19.8 24 30 C17 30 17 30 15.109375 28.20703125 C14.66078125 27.41683594 14.2121875 26.62664062 13.75 25.8125 C13.29109375 25.03519531 12.8321875 24.25789063 12.359375 23.45703125 C11.91078125 22.64621094 11.4621875 21.83539063 11 21 C10.01 19.35 9.02 17.7 8 16 C7.67 20.62 7.34 25.24 7 30 C4.69 30 2.38 30 0 30 C0 20.1 0 10.2 0 0 Z " fill="#FFFFFF" transform="translate(261,196)"/>
<path d="M0 0 C7 0 7 0 8.890625 1.7578125 C9.33921875 2.53898438 9.7878125 3.32015625 10.25 4.125 C10.70890625 4.89070312 11.1678125 5.65640625 11.640625 6.4453125 C13.14403509 9.27068664 14.56870821 12.13741642 16 15 C16.33 10.05 16.66 5.1 17 0 C19.31 0 21.62 0 24 0 C24 9.9 24 19.8 24 30 C17 30 17 30 15.109375 28.20703125 C14.66078125 27.41683594 14.2121875 26.62664062 13.75 25.8125 C13.29109375 25.03519531 12.8321875 24.25789063 12.359375 23.45703125 C11.91078125 22.64621094 11.4621875 21.83539063 11 21 C10.01 19.35 9.02 17.7 8 16 C7.67 20.62 7.34 25.24 7 30 C4.69 30 2.38 30 0 30 C0 20.1 0 10.2 0 0 Z " fill="#FFFFFF" transform="translate(134,196)"/>
<path d="M0 0 C7 0 7 0 8.890625 1.7578125 C9.33921875 2.53898438 9.7878125 3.32015625 10.25 4.125 C10.70890625 4.89070312 11.1678125 5.65640625 11.640625 6.4453125 C13.14403509 9.27068664 14.56870821 12.13741642 16 15 C16.33 10.05 16.66 5.1 17 0 C19.31 0 21.62 0 24 0 C24 9.9 24 19.8 24 30 C17 30 17 30 15.109375 28.20703125 C14.66078125 27.41683594 14.2121875 26.62664062 13.75 25.8125 C13.29109375 25.03519531 12.8321875 24.25789063 12.359375 23.45703125 C11.91078125 22.64621094 11.4621875 21.83539063 11 21 C10.01 19.35 9.02 17.7 8 16 C7.67 20.62 7.34 25.24 7 30 C4.69 30 2.38 30 0 30 C0 20.1 0 10.2 0 0 Z " fill="#FFFFFF" transform="translate(25,196)"/>
<path d="M0 0 C3.25 2.125 3.25 2.125 5 5 C5.3125 8.3125 5.3125 8.3125 5 11 C1.625 11.1875 1.625 11.1875 -2 11 C-2.66 10.01 -3.32 9.02 -4 8 C-7.06556598 7.26656572 -7.06556598 7.26656572 -10 7 C-10 7.99 -10 8.98 -10 10 C-9.09636719 10.30292969 -8.19273437 10.60585937 -7.26171875 10.91796875 C-6.08222656 11.33691406 -4.90273437 11.75585938 -3.6875 12.1875 C-2.51574219 12.59355469 -1.34398437 12.99960938 -0.13671875 13.41796875 C3.39430977 15.19887355 4.47465078 16.3966388 6 20 C5.9288929 24.05310471 5.64355765 26.21112288 3.0625 29.375 C-0.48584116 32.17066273 -2.82544626 32.18902079 -7.3125 32.25 C-8.44300781 32.27578125 -9.57351562 32.3015625 -10.73828125 32.328125 C-14.27776337 31.97205734 -16.13259621 31.04430289 -19 29 C-18.38722388 26.03824877 -17.74627478 24.61941217 -16 22 C-15.34 22.309375 -14.68 22.61875 -14 22.9375 C-10.29523985 24.24960255 -6.90736009 24.60264135 -3 25 C-3 24.01 -3 23.02 -3 22 C-3.90363281 21.70867187 -4.80726563 21.41734375 -5.73828125 21.1171875 C-6.91777344 20.70726562 -8.09726563 20.29734375 -9.3125 19.875 C-10.48425781 19.48054688 -11.65601563 19.08609375 -12.86328125 18.6796875 C-16.67524038 16.63841424 -17.56301933 15.01938072 -19 11 C-18.92466446 7.23322325 -18.48892935 5.58356084 -16.0625 2.6875 C-11.34781041 -1.1699733 -5.850738 -0.6855725 0 0 Z " fill="#FFFFFF" transform="translate(144,152)"/>
<path d="M0 0 C2.97 0 5.94 0 9 0 C11.91958841 6.82098531 14.68962152 13.68513698 17.3125 20.625 C17.57885254 21.32367188 17.84520508 22.02234375 18.11962891 22.7421875 C20 27.75980282 20 27.75980282 20 30 C17.03 30 14.06 30 11 30 C10.67 28.02 10.34 26.04 10 24 C6.7 24 3.4 24 0 24 C-0.66 25.98 -1.32 27.96 -2 30 C-4.64 30 -7.28 30 -10 30 C-9.33372522 26.17736359 -8.26037893 22.68695622 -6.93359375 19.04296875 C-6.53076172 17.93115234 -6.12792969 16.81933594 -5.71289062 15.67382812 C-5.29201172 14.52333984 -4.87113281 13.37285156 -4.4375 12.1875 C-4.01275391 11.01767578 -3.58800781 9.84785156 -3.15039062 8.64257812 C-2.10344692 5.76054207 -1.05321116 2.87975032 0 0 Z M4 10 C3.34 12.64 2.68 15.28 2 18 C3.98 18 5.96 18 8 18 C7.01 15.36 6.02 12.72 5 10 C4.67 10 4.34 10 4 10 Z " fill="#FFFFFF" transform="translate(298,196)"/>
<path d="M0 0 C2.97 0 5.94 0 9 0 C11.91958841 6.82098531 14.68962152 13.68513698 17.3125 20.625 C17.57885254 21.32367188 17.84520508 22.02234375 18.11962891 22.7421875 C20 27.75980282 20 27.75980282 20 30 C17.03 30 14.06 30 11 30 C10.67 28.02 10.34 26.04 10 24 C6.7 24 3.4 24 0 24 C-0.66 25.98 -1.32 27.96 -2 30 C-4.64 30 -7.28 30 -10 30 C-9.33372522 26.17736359 -8.26037893 22.68695622 -6.93359375 19.04296875 C-6.53076172 17.93115234 -6.12792969 16.81933594 -5.71289062 15.67382812 C-5.29201172 14.52333984 -4.87113281 13.37285156 -4.4375 12.1875 C-4.01275391 11.01767578 -3.58800781 9.84785156 -3.15039062 8.64257812 C-2.10344692 5.76054207 -1.05321116 2.87975032 0 0 Z M4 10 C3.34 12.64 2.68 15.28 2 18 C3.98 18 5.96 18 8 18 C7.01 15.36 6.02 12.72 5 10 C4.67 10 4.34 10 4 10 Z " fill="#FFFFFF" transform="translate(172,196)"/>
<path d="M0 0 C2.97 0 5.94 0 9 0 C11.91958841 6.82098531 14.68962152 13.68513698 17.3125 20.625 C17.57885254 21.32367188 17.84520508 22.02234375 18.11962891 22.7421875 C20 27.75980282 20 27.75980282 20 30 C17.03 30 14.06 30 11 30 C10.67 28.02 10.34 26.04 10 24 C6.7 24 3.4 24 0 24 C-0.66 25.98 -1.32 27.96 -2 30 C-4.64 30 -7.28 30 -10 30 C-9.33372522 26.17736359 -8.26037893 22.68695622 -6.93359375 19.04296875 C-6.53076172 17.93115234 -6.12792969 16.81933594 -5.71289062 15.67382812 C-5.29201172 14.52333984 -4.87113281 13.37285156 -4.4375 12.1875 C-4.01275391 11.01767578 -3.58800781 9.84785156 -3.15039062 8.64257812 C-2.10344692 5.76054207 -1.05321116 2.87975032 0 0 Z M4 10 C3.34 12.64 2.68 15.28 2 18 C3.98 18 5.96 18 8 18 C7.01 15.36 6.02 12.72 5 10 C4.67 10 4.34 10 4 10 Z " fill="#FFFFFF" transform="translate(240,153)"/>
<path d="M0 0 C6.6 0 13.2 0 20 0 C20 2.31 20 4.62 20 7 C16.04 7 12.08 7 8 7 C8 8.32 8 9.64 8 11 C11.3 11 14.6 11 18 11 C18 13.31 18 15.62 18 18 C14.7 18 11.4 18 8 18 C8 19.65 8 21.3 8 23 C11.96 23 15.92 23 20 23 C20 25.31 20 27.62 20 30 C13.4 30 6.8 30 0 30 C0 20.1 0 10.2 0 0 Z " fill="#FFFFFF" transform="translate(81,196)"/>
<path d="M0 0 C6.6 0 13.2 0 20 0 C20 2.31 20 4.62 20 7 C16.04 7 12.08 7 8 7 C8 8.32 8 9.64 8 11 C11.3 11 14.6 11 18 11 C18 13.31 18 15.62 18 18 C14.7 18 11.4 18 8 18 C8 19.65 8 21.3 8 23 C11.96 23 15.92 23 20 23 C20 25.31 20 27.62 20 30 C13.4 30 6.8 30 0 30 C0 20.1 0 10.2 0 0 Z " fill="#FFFFFF" transform="translate(208,153)"/>
<path d="M0 0 C6.6 0 13.2 0 20 0 C20 2.31 20 4.62 20 7 C16.04 7 12.08 7 8 7 C8 8.32 8 9.64 8 11 C11.3 11 14.6 11 18 11 C18 13.31 18 15.62 18 18 C14.7 18 11.4 18 8 18 C8 19.65 8 21.3 8 23 C11.96 23 15.92 23 20 23 C20 25.31 20 27.62 20 30 C13.4 30 6.8 30 0 30 C0 20.1 0 10.2 0 0 Z " fill="#FFFFFF" transform="translate(77,153)"/>
<path d="M0 0 C8.25 0 16.5 0 25 0 C25 2.31 25 4.62 25 7 C22.36 7 19.72 7 17 7 C17 14.59 17 22.18 17 30 C14.36 30 11.72 30 9 30 C9 22.41 9 14.82 9 7 C6.03 7 3.06 7 0 7 C0 4.69 0 2.38 0 0 Z " fill="#FFFFFF" transform="translate(188,196)"/>
<path d="M0 0 C8.25 0 16.5 0 25 0 C25 2.31 25 4.62 25 7 C22.36 7 19.72 7 17 7 C17 14.59 17 22.18 17 30 C14.36 30 11.72 30 9 30 C9 22.41 9 14.82 9 7 C6.03 7 3.06 7 0 7 C0 4.69 0 2.38 0 0 Z " fill="#FFFFFF" transform="translate(53,196)"/>
<path d="M0 0 C8.25 0 16.5 0 25 0 C25 2.31 25 4.62 25 7 C22.36 7 19.72 7 17 7 C17 14.59 17 22.18 17 30 C14.36 30 11.72 30 9 30 C9 22.41 9 14.82 9 7 C6.03 7 3.06 7 0 7 C0 4.69 0 2.38 0 0 Z " fill="#FFFFFF" transform="translate(151,153)"/>
<path d="M0 0 C8.25 0 16.5 0 25 0 C25 2.31 25 4.62 25 7 C22.36 7 19.72 7 17 7 C17 14.59 17 22.18 17 30 C14.36 30 11.72 30 9 30 C9 22.41 9 14.82 9 7 C6.03 7 3.06 7 0 7 C0 4.69 0 2.38 0 0 Z " fill="#FFFFFF" transform="translate(99,153)"/>
<path d="M0 0 C2.64 0 5.28 0 8 0 C8 7.59 8 15.18 8 23 C11.96 23 15.92 23 20 23 C20 25.31 20 27.62 20 30 C13.4 30 6.8 30 0 30 C0 20.1 0 10.2 0 0 Z " fill="#FFFFFF" transform="translate(321,196)"/>
<path d="M0 0 C2.64 0 5.28 0 8 0 C8.0580966 3.9166043 8.09362893 7.83309763 8.125 11.75 C8.14175781 12.86117187 8.15851563 13.97234375 8.17578125 15.1171875 C8.18222656 16.18710938 8.18867187 17.25703125 8.1953125 18.359375 C8.20578613 19.34389648 8.21625977 20.32841797 8.22705078 21.34277344 C7.98938733 24.12420244 7.53502583 25.68502545 6 28 C2.77252945 30.15164703 1.79494361 30.27245079 -1.9375 30.25 C-2.79214844 30.25515625 -3.64679687 30.2603125 -4.52734375 30.265625 C-7.11974567 29.98713633 -8.76514234 29.30669172 -11 28 C-10.63680051 25.3668037 -10.14494976 24.15568678 -8.3125 22.1875 C-6 21 -6 21 0 22 C0 14.74 0 7.48 0 0 Z " fill="#FFFFFF" transform="translate(64,153)"/>
<path d="M0 0 C2.64 0 5.28 0 8 0 C8 9.9 8 19.8 8 30 C5.36 30 2.72 30 0 30 C0 20.1 0 10.2 0 0 Z " fill="#FFFFFF" transform="translate(217,196)"/>
<path d="M0 0 C2.64 0 5.28 0 8 0 C8 9.9 8 19.8 8 30 C5.36 30 2.72 30 0 30 C0 20.1 0 10.2 0 0 Z " fill="#FFFFFF" transform="translate(12,196)"/>
<path d="M0 0 C1.19109375 0.00773438 1.19109375 0.00773438 2.40625 0.015625 C3.2003125 0.01046875 3.994375 0.0053125 4.8125 0 C6.90625 0.265625 6.90625 0.265625 8.90625 2.265625 C9.03125 4.890625 9.03125 4.890625 8.90625 7.265625 C7.25625 6.935625 5.60625 6.605625 3.90625 6.265625 C3.90625 5.605625 3.90625 4.945625 3.90625 4.265625 C2.25625 4.595625 0.60625 4.925625 -1.09375 5.265625 C-0.76375 8.235625 -0.43375 11.205625 -0.09375 14.265625 C1.55625 14.265625 3.20625 14.265625 4.90625 14.265625 C5.23625 13.605625 5.56625 12.945625 5.90625 12.265625 C4.58625 12.265625 3.26625 12.265625 1.90625 12.265625 C1.90625 11.275625 1.90625 10.285625 1.90625 9.265625 C4.54625 9.265625 7.18625 9.265625 9.90625 9.265625 C10.19921875 15.3203125 10.19921875 15.3203125 9.90625 17.265625 C5.87611952 19.95237865 2.63806437 19.93304186 -2.09375 19.265625 C-4.83712994 17.61959704 -5.74177249 16.4446266 -6.65234375 13.39453125 C-7.31592069 9.7756426 -7.33403169 7.79195633 -5.78125 4.390625 C-2.55164602 0.32371629 -2.55164602 0.32371629 0 0 Z " fill="#ECB00D" transform="translate(194.09375,254.734375)"/>
<path d="M0 0 C9.1796875 -0.1953125 9.1796875 -0.1953125 12 0 C14 2 14 2 14.1875 5.375 C14.04292815 8.17005572 13.78327827 10.35643582 13 13 C13 13.66 13 14.32 13 15 C13.99 15 14.98 15 16 15 C16 16.32 16 17.64 16 19 C14.25 19.6875 14.25 19.6875 12 20 C8.75689314 18.18767558 7.53824442 16.29623803 6 13 C5.34 12.67 4.68 12.34 4 12 C4 14.31 4 16.62 4 19 C2.68 19 1.36 19 0 19 C0 12.73 0 6.46 0 0 Z M4 3 C4 4.98 4 6.96 4 9 C5.65 8.67 7.3 8.34 9 8 C9 6.68 9 5.36 9 4 C7.35 3.67 5.7 3.34 4 3 Z " fill="#ECB00D" transform="translate(258,255)"/>
<path d="M0 0 C1.32 0 2.64 0 4 0 C4 2.31 4 4.62 4 7 C6.31 7 8.62 7 11 7 C11 4.69 11 2.38 11 0 C12.32 0 13.64 0 15 0 C15 6.27 15 12.54 15 19 C13.68 19 12.36 19 11 19 C11 16.36 11 13.72 11 11 C8.69 11 6.38 11 4 11 C4 13.64 4 16.28 4 19 C2.68 19 1.36 19 0 19 C0 12.73 0 6.46 0 0 Z " fill="#ECB00D" transform="translate(212,255)"/>
<path d="M0 0 C1.32 0 2.64 0 4 0 C4 2.31 4 4.62 4 7 C6.31 7 8.62 7 11 7 C11 4.69 11 2.38 11 0 C12.32 0 13.64 0 15 0 C15 6.27 15 12.54 15 19 C13.68 19 12.36 19 11 19 C11 16.36 11 13.72 11 11 C8.69 11 6.38 11 4 11 C4 13.64 4 16.28 4 19 C2.68 19 1.36 19 0 19 C0 12.73 0 6.46 0 0 Z " fill="#ECB00D" transform="translate(150,255)"/>
<path d="M0 0 C4.29 0 8.58 0 13 0 C13 1.32 13 2.64 13 4 C10.03 4 7.06 4 4 4 C4 4.99 4 5.98 4 7 C6.31 7 8.62 7 11 7 C11 8.32 11 9.64 11 11 C8.69 11 6.38 11 4 11 C4 12.32 4 13.64 4 15 C6.97 15 9.94 15 13 15 C13 16.32 13 17.64 13 19 C8.71 19 4.42 19 0 19 C0 12.73 0 6.46 0 0 Z " fill="#ECB00D" transform="translate(237,255)"/>
<path d="M0 0 C2.8125 -0.3125 2.8125 -0.3125 6 0 C7.875 2.5 7.875 2.5 9 5 C9.37125 4.175 9.7425 3.35 10.125 2.5 C10.74375 1.675 11.3625 0.85 12 0 C15.1171875 -0.15625 15.1171875 -0.15625 18 0 C17.57847656 0.70125 17.15695313 1.4025 16.72265625 2.125 C13.39398593 7.88947378 11.25203391 12.32110138 11 19 C9.68 19 8.36 19 7 19 C6.773125 17.72125 6.54625 16.4425 6.3125 15.125 C5.11202099 9.61331172 2.69206281 4.92174841 0 0 Z " fill="#ECB00D" transform="translate(114,255)"/>
<path d="M0 0 C3.96 0 7.92 0 12 0 C12 1.32 12 2.64 12 4 C9.36 4 6.72 4 4 4 C4 5.32 4 6.64 4 8 C6.31 8 8.62 8 11 8 C11 9.32 11 10.64 11 12 C8.69 12 6.38 12 4 12 C4 14.31 4 16.62 4 19 C2.68 19 1.36 19 0 19 C0 12.73 0 6.46 0 0 Z " fill="#ECB00D" transform="translate(78,255)"/>
<path d="M0 0 C1.32 0 2.64 0 4 0 C4 4.95 4 9.9 4 15 C6.64 15 9.28 15 12 15 C12 16.32 12 17.64 12 19 C8.04 19 4.08 19 0 19 C0 12.73 0 6.46 0 0 Z " fill="#ECB00D" transform="translate(98,255)"/>
<path d="M0 0 C1.32 0 2.64 0 4 0 C4 6.27 4 12.54 4 19 C2.68 19 1.36 19 0 19 C0 12.73 0 6.46 0 0 Z " fill="#ECB00D" transform="translate(174,255)"/>
</svg>
